<svg width="48" height="32" viewBox="0 0 48 32" fill="none" xmlns="http://www.w3.org/2000/svg">
<path d="M44 0H4C1.79086 0 0 1.79086 0 4V28C0 30.2091 1.79086 32 4 32H44C46.2091 32 48 30.2091 48 28V4C48 1.79086 46.2091 0 44 0Z" fill="#F2F4F9"/>
<path d="M38.0798 24.8H31.0398V11.6C31.0398 9.16801 33.8878 7.20001 36.3198 7.20001H41.5998V20.4C41.5998 22.832 40.5118 24.8 38.0798 24.8Z" fill="#99CD76"/>
<path d="M25.76 24.8H18.72V11.6C18.72 9.16801 21.568 7.20001 24 7.20001H29.28V20.4C29.28 22.832 28.192 24.8 25.76 24.8Z" fill="#EA564B"/>
<path d="M13.4399 24.8H6.3999V11.6C6.3999 9.16801 9.2479 7.20001 11.6799 7.20001H16.9599V20.4C16.9599 22.832 15.8719 24.8 13.4399 24.8Z" fill="#5565AF"/>
</svg>
