<svg width="48" height="32" viewBox="0 0 48 32" fill="none" xmlns="http://www.w3.org/2000/svg">
<path d="M44 0H4C1.79086 0 0 1.79086 0 4V28C0 30.2091 1.79086 32 4 32H44C46.2091 32 48 30.2091 48 28V4C48 1.79086 46.2091 0 44 0Z" fill="#F2F4F9"/>
<path d="M18.8479 21.432L20.6799 10.568H23.6559L21.8159 21.432H18.8479Z" fill="#5565AF"/>
<path d="M32.416 10.856C31.824 10.64 30.896 10.4 29.744 10.4C26.8 10.4 24.736 11.872 24.712 13.984C24.696 15.544 26.184 16.416 27.32 16.936C28.48 17.464 28.864 17.808 28.864 18.28C28.856 19.008 27.936 19.336 27.08 19.336C25.888 19.336 25.256 19.168 24.28 18.768L23.896 18.6L23.48 21.032C24.176 21.336 25.464 21.6 26.792 21.608C29.92 21.608 31.952 20.152 31.976 17.904C31.992 16.672 31.192 15.728 29.48 14.952C28.44 14.448 27.8 14.112 27.816 13.608C27.816 13.152 28.36 12.672 29.52 12.672C30.496 12.656 31.2 12.872 31.752 13.088L32.016 13.208L32.416 10.856Z" fill="#5565AF"/>
<path d="M37.4881 10.568C36.7761 10.568 36.2561 10.784 35.9441 11.496L31.5281 21.424H34.6801L35.2881 19.76H39.0481L39.4001 21.424H42.2001L39.7521 10.576L37.4881 10.568ZM36.1361 17.592C36.3841 16.968 37.3201 14.56 37.3201 14.56C37.3041 14.584 37.5681 13.928 37.7201 13.52L37.9201 14.456C37.9201 14.456 38.4881 17.048 38.6081 17.592H36.1361Z" fill="#5565AF"/>
<path d="M13.416 18.008L13.152 16.52C12.608 14.784 10.92 12.912 9.03198 11.968L11.664 21.416H14.816L19.544 10.568H16.4L13.416 18.008Z" fill="#5565AF"/>
<path d="M5.80005 10.568V10.744C9.53605 11.64 12.128 13.912 13.152 16.52L12.072 11.496C11.896 10.808 11.344 10.6 10.696 10.568H5.80005Z" fill="#F7981D"/>
</svg>
