<svg width="48" height="32" viewBox="0 0 48 32" fill="none" xmlns="http://www.w3.org/2000/svg">
<path d="M44 0H4C1.79086 0 0 1.79086 0 4V28C0 30.2091 1.79086 32 4 32H44C46.2091 32 48 30.2091 48 28V4C48 1.79086 46.2091 0 44 0Z" fill="#F2F4F9"/>
<path d="M41.5998 16.008C41.5998 21.84 36.8878 26.568 31.0638 26.568C25.2478 26.568 20.5278 21.848 20.5278 16.008V16C20.5278 10.168 25.2398 5.44001 31.0638 5.43201C36.8878 5.44001 41.5998 10.168 41.5998 16.008C41.5998 16 41.5998 16.008 41.5998 16.008Z" fill="#F7981D"/>
<path d="M16.8639 5.448C11.0799 5.488 6.3999 10.2 6.3999 16.008C6.3999 21.84 11.1199 26.568 16.9359 26.568C19.6639 26.568 22.1519 25.528 24.0239 23.816C24.4079 23.464 24.7679 23.088 25.0959 22.68H22.9439C22.6559 22.336 22.3919 21.968 22.1599 21.592H25.8799C26.1119 21.232 26.3119 20.848 26.4959 20.456H21.5439C21.3759 20.096 21.2319 19.72 21.1039 19.352H26.9359C27.2879 18.296 27.4799 17.168 27.4799 16.008C27.4799 15.232 27.3919 14.472 27.2399 13.744H20.7999C20.8799 13.368 20.9839 13 21.1039 12.64H26.9359C26.8079 12.256 26.6559 11.872 26.4879 11.504H21.5519C21.7279 11.128 21.9359 10.752 22.1519 10.4H25.8719C25.6239 10.008 25.3519 9.632 25.0559 9.264H22.9839C23.3039 8.888 23.6559 8.528 24.0399 8.2C22.1679 6.488 19.6799 5.448 16.9519 5.448C16.9119 5.448 16.8879 5.448 16.8639 5.448Z" fill="#CB2026"/>
<path d="M20.7279 18.696L20.8639 17.744C20.7839 17.744 20.6719 17.776 20.5759 17.776C20.1839 17.776 20.1439 17.568 20.1679 17.416L20.4799 15.464H21.0719L21.2239 14.4H20.6639L20.7759 13.744H19.6559C19.6319 13.768 18.9919 17.44 18.9919 17.88C18.9919 18.544 19.3599 18.84 19.8799 18.84C20.2959 18.84 20.6079 18.728 20.7279 18.696Z" fill="white"/>
<path d="M21.0798 16.872C21.0798 18.464 22.1278 18.84 23.0158 18.84C23.8398 18.84 24.1998 18.656 24.1998 18.656L24.3918 17.568C24.3918 17.568 23.7598 17.84 23.1998 17.84C21.9918 17.84 22.2078 16.936 22.2078 16.936H24.4878C24.4878 16.936 24.6318 16.208 24.6318 15.912C24.6318 15.168 24.2638 14.272 23.0318 14.272C21.9118 14.28 21.0798 15.496 21.0798 16.872ZM23.0398 15.288C23.6718 15.288 23.5598 16 23.5598 16.064H22.3198C22.3198 15.984 22.4318 15.288 23.0398 15.288Z" fill="white"/>
<path d="M30.1519 18.696L30.3519 17.472C30.3519 17.472 29.7999 17.744 29.4239 17.744C28.6319 17.744 28.3119 17.136 28.3119 16.48C28.3119 15.152 28.9919 14.424 29.7599 14.424C30.3279 14.424 30.7919 14.744 30.7919 14.744L30.9759 13.552C30.9759 13.552 30.2959 13.28 29.7119 13.28C28.4159 13.28 27.1599 14.408 27.1599 16.52C27.1599 17.92 27.8399 18.848 29.1759 18.848C29.5439 18.848 30.1519 18.696 30.1519 18.696Z" fill="white"/>
<path d="M14.5518 14.296C13.7838 14.296 13.1918 14.544 13.1918 14.544L13.0318 15.512C13.0318 15.512 13.5198 15.312 14.2558 15.312C14.6718 15.312 14.9758 15.36 14.9758 15.696C14.9758 15.904 14.9358 15.976 14.9358 15.976C14.9358 15.976 14.6078 15.952 14.4478 15.952C13.4798 15.952 12.4558 16.368 12.4558 17.616C12.4558 18.6 13.1278 18.824 13.5358 18.824C14.3278 18.824 14.6718 18.304 14.6878 18.304L14.6478 18.736H15.6398L16.0798 15.64C16.0958 14.336 14.9438 14.296 14.5518 14.296ZM14.7918 16.816C14.8158 17.008 14.6718 17.888 13.9998 17.888C13.6558 17.888 13.5598 17.624 13.5598 17.464C13.5598 17.152 13.7198 16.792 14.5518 16.792C14.7358 16.792 14.7598 16.816 14.7918 16.816Z" fill="white"/>
<path d="M17.1439 18.808C17.3919 18.808 18.8399 18.872 18.8399 17.376C18.8399 15.984 17.5039 16.256 17.5039 15.696C17.5039 15.424 17.7199 15.328 18.1199 15.328C18.2799 15.328 18.8879 15.376 18.8879 15.376L19.0319 14.384C19.0319 14.384 18.6399 14.296 17.9999 14.296C17.1679 14.296 16.3279 14.632 16.3279 15.76C16.3279 17.048 17.7279 16.92 17.7279 17.464C17.7279 17.824 17.3359 17.856 17.0319 17.856C16.5119 17.856 16.0399 17.672 16.0399 17.688L15.8879 18.672C15.9119 18.68 16.1999 18.808 17.1439 18.808Z" fill="white"/>
<path d="M39.4399 13.408L39.1999 14.912C39.1999 14.912 38.7839 14.328 38.1199 14.328C37.0959 14.328 36.2319 15.568 36.2319 17C36.2319 17.92 36.6879 18.824 37.6159 18.824C38.2879 18.824 38.6559 18.352 38.6559 18.352L38.5999 18.752H39.6959L40.5519 13.408H39.4399ZM38.9199 16.344C38.9199 16.936 38.6239 17.736 38.0159 17.736C37.6079 17.736 37.4239 17.392 37.4239 16.864C37.4239 15.992 37.8159 15.416 38.3119 15.416C38.7119 15.4 38.9199 15.688 38.9199 16.344Z" fill="white"/>
<path d="M8.4799 18.752L9.1599 14.72L9.2559 18.752H10.0319L11.4719 14.72L10.8399 18.752H11.9839L12.8639 13.4H11.0959L9.9919 16.68L9.9359 13.4H8.2959L7.3999 18.752H8.4799Z" fill="white"/>
<path d="M25.7599 18.76C26.0879 16.904 26.1439 15.392 26.9279 15.664C27.0639 14.944 27.1999 14.664 27.3439 14.36C27.3439 14.36 27.2719 14.344 27.1279 14.344C26.6239 14.344 26.2559 15.032 26.2559 15.032L26.3519 14.4H25.3119L24.6079 18.752H25.7599V18.76Z" fill="white"/>
<path d="M32.7359 14.296C31.9679 14.296 31.3839 14.544 31.3839 14.544L31.2159 15.512C31.2159 15.512 31.7039 15.312 32.4399 15.312C32.8559 15.312 33.1599 15.36 33.1599 15.696C33.1599 15.904 33.1199 15.976 33.1199 15.976C33.1199 15.976 32.7919 15.952 32.6319 15.952C31.6639 15.952 30.6399 16.368 30.6399 17.616C30.6399 18.6 31.3039 18.824 31.7199 18.824C32.5119 18.824 32.8559 18.304 32.8719 18.304L32.8319 18.736H33.8239L34.2639 15.64C34.2799 14.336 33.1359 14.296 32.7359 14.296ZM32.9759 16.816C32.9999 17.008 32.8559 17.888 32.1839 17.888C31.8399 17.888 31.7439 17.624 31.7439 17.464C31.7439 17.152 31.9039 16.792 32.7279 16.792C32.9279 16.792 32.9439 16.816 32.9759 16.816Z" fill="white"/>
<path d="M35.1839 18.76C35.5119 16.904 35.5679 15.392 36.3519 15.664C36.4879 14.944 36.6159 14.664 36.7679 14.36C36.7679 14.36 36.6959 14.344 36.5519 14.344C36.0479 14.344 35.6799 15.032 35.6799 15.032L35.7759 14.4H34.7279L34.0239 18.752H35.1839V18.76Z" fill="white"/>
</svg>
