<svg width="48" height="32" viewBox="0 0 48 32" fill="none" xmlns="http://www.w3.org/2000/svg">
<path d="M44 0H4C1.79086 0 0 1.79086 0 4V28C0 30.2091 1.79086 32 4 32H44C46.2091 32 48 30.2091 48 28V4C48 1.79086 46.2091 0 44 0Z" fill="#F2F4F9"/>
<path d="M10.8639 15.952C10.8639 16.84 10.6159 17.512 10.1119 17.984C9.6079 18.456 8.8799 18.688 7.9279 18.688H6.3999V13.312H8.0879C8.9679 13.312 9.6479 13.544 10.1279 14.008C10.6239 14.472 10.8639 15.12 10.8639 15.952ZM9.6799 15.976C9.6799 14.824 9.1679 14.24 8.1519 14.24H7.5439V17.744H8.0319C9.1279 17.752 9.6799 17.16 9.6799 15.976Z" fill="#414042"/>
<path d="M11.824 18.688V13.312H12.968V18.688H11.824Z" fill="#414042"/>
<path d="M17.4959 17.2C17.4959 17.688 17.3199 18.064 16.9679 18.352C16.6159 18.632 16.1359 18.776 15.5119 18.776C14.9359 18.776 14.4319 18.664 13.9839 18.456V17.392C14.3519 17.56 14.6559 17.672 14.9039 17.736C15.1519 17.8 15.3839 17.832 15.5919 17.832C15.8399 17.832 16.0319 17.784 16.1679 17.688C16.2959 17.592 16.3679 17.448 16.3679 17.264C16.3679 17.16 16.3359 17.064 16.2799 16.984C16.2239 16.904 16.1359 16.824 16.0159 16.744C15.9039 16.672 15.6719 16.544 15.3199 16.376C14.9919 16.224 14.7439 16.072 14.5759 15.928C14.4159 15.784 14.2799 15.624 14.1839 15.432C14.0879 15.24 14.0399 15.024 14.0399 14.768C14.0399 14.296 14.1999 13.92 14.5199 13.648C14.8399 13.376 15.2879 13.24 15.8559 13.24C16.1359 13.24 16.3999 13.272 16.6559 13.336C16.9119 13.4 17.1759 13.496 17.4559 13.616L17.0879 14.504C16.7999 14.384 16.5599 14.304 16.3759 14.256C16.1839 14.208 15.9999 14.184 15.8239 14.184C15.6079 14.184 15.4399 14.232 15.3279 14.336C15.2159 14.44 15.1519 14.568 15.1519 14.728C15.1519 14.832 15.1759 14.912 15.2239 14.992C15.2719 15.064 15.3439 15.136 15.4479 15.208C15.5519 15.28 15.7919 15.4 16.1679 15.584C16.6719 15.824 17.0159 16.064 17.1999 16.304C17.3999 16.552 17.4959 16.848 17.4959 17.2Z" fill="#414042"/>
<path d="M20.7519 14.184C20.3199 14.184 19.9919 14.344 19.7519 14.664C19.5199 14.984 19.3999 15.44 19.3999 16.016C19.3999 17.216 19.8479 17.816 20.7519 17.816C21.1279 17.816 21.5839 17.72 22.1279 17.536V18.496C21.6879 18.68 21.1919 18.768 20.6479 18.768C19.8639 18.768 19.2639 18.528 18.8559 18.056C18.4399 17.584 18.2319 16.904 18.2319 16.016C18.2319 15.456 18.3359 14.968 18.5359 14.544C18.7359 14.12 19.0319 13.8 19.4079 13.576C19.7919 13.352 20.2399 13.24 20.7519 13.24C21.2719 13.24 21.7999 13.368 22.3279 13.616L21.9599 14.544C21.7599 14.448 21.5599 14.368 21.3519 14.296C21.1519 14.216 20.9519 14.184 20.7519 14.184Z" fill="#414042"/>
<path d="M31.256 13.312H32.408L30.584 18.688H29.336L27.512 13.312H28.664L29.672 16.512C29.728 16.704 29.792 16.92 29.848 17.176C29.904 17.432 29.944 17.6 29.96 17.696C29.984 17.472 30.08 17.08 30.232 16.512L31.256 13.312Z" fill="#414042"/>
<path d="M36.1839 18.688H33.0879V13.312H36.1839V14.248H34.2239V15.432H36.0479V16.368H34.2239V17.752H36.1839V18.688Z" fill="#414042"/>
<path d="M38.4399 16.624V18.688H37.2959V13.312H38.8639C39.5999 13.312 40.1359 13.448 40.4879 13.712C40.8399 13.976 41.0159 14.384 41.0159 14.92C41.0159 15.232 40.9279 15.52 40.7519 15.768C40.5759 16.016 40.3279 16.208 40.0159 16.344C40.8239 17.552 41.3519 18.336 41.5999 18.688H40.3359L39.0559 16.624H38.4399ZM38.4399 15.704H38.8079C39.1679 15.704 39.4319 15.64 39.6079 15.528C39.7759 15.408 39.8639 15.216 39.8639 14.96C39.8639 14.704 39.7759 14.528 39.5999 14.416C39.4239 14.304 39.1519 14.256 38.7839 14.256H38.4319L38.4399 15.704Z" fill="#414042"/>
<path d="M24.9439 18.688C26.4284 18.688 27.6319 17.4845 27.6319 16C27.6319 14.5154 26.4284 13.312 24.9439 13.312C23.4593 13.312 22.2559 14.5154 22.2559 16C22.2559 17.4845 23.4593 18.688 24.9439 18.688Z" fill="#E6A124"/>
<path d="M6.3999 32H43.9999C46.209 32 47.9999 30.2091 47.9999 28V21.6L6.3999 32Z" fill="#E6A124"/>
</svg>
