<svg width="199" height="34" viewBox="0 0 199 34" fill="none" xmlns="http://www.w3.org/2000/svg">
<path d="M0.5 33.125V8.2175H4.58L4.865 10.64C6.2225 8.6825 8.585 7.8275 10.5875 7.8275C16.025 7.8275 19.6325 11.855 19.6325 17.0225C19.6325 22.1525 16.3775 26.2175 10.73 26.2175C8.87 26.2175 6.1175 25.6475 4.865 23.72V33.125H0.5ZM15.2675 17.015C15.2675 14.27 13.4075 12.0275 10.265 12.0275C7.115 12.0275 5.2625 14.27 5.2625 17.015C5.2625 19.76 7.3025 22.0025 10.265 22.0025C13.2275 22.0025 15.2675 19.76 15.2675 17.015Z" fill="#E82035"/>
<path d="M39.65 17.015C39.65 22.0775 36.185 26.1725 30.4625 26.1725C24.74 26.1725 21.3125 22.0775 21.3125 17.015C21.3125 11.99 24.815 7.8575 30.4325 7.8575C36.05 7.8575 39.65 11.99 39.65 17.015ZM25.67 17.015C25.67 19.685 27.2825 22.1825 30.4625 22.1825C33.6425 22.1825 35.255 19.685 35.255 17.015C35.255 14.375 33.395 11.81 30.4625 11.81C27.3125 11.8175 25.67 14.3825 25.67 17.015Z" fill="#E82035"/>
<path d="M57.38 8.17999L61.2425 21.4025L65.285 8.17999H70.115L63.965 25.8575H58.8875L57.065 20.6525L55.49 14.7725L53.915 20.6525L52.0925 25.8575H47.015L40.8275 8.17999H45.6875L49.73 21.4025L53.555 8.17999H57.38Z" fill="#E82035"/>
<path d="M76.7974 18.5525C77.0824 20.7275 78.9799 22.295 82.0549 22.295C83.6599 22.295 85.7749 21.6875 86.7724 20.66L89.5624 23.405C87.7024 25.325 84.6649 26.255 81.9799 26.255C75.8974 26.255 72.2899 22.5125 72.2899 16.88C72.2899 11.5325 75.9349 7.685 81.6574 7.685C87.5599 7.685 91.2424 11.3225 90.5599 18.5525H76.7974ZM86.3749 14.9525C86.0899 12.6725 84.3049 11.5325 81.7999 11.5325C79.4374 11.5325 77.5099 12.6725 76.8649 14.9525H86.3749Z" fill="#E82035"/>
<path d="M97.25 8.2175L97.5725 10.25C98.93 8.075 100.752 7.7525 102.545 7.7525C104.367 7.7525 106.122 8.465 107.09 9.425L105.125 13.205C104.232 12.455 103.407 12.065 101.975 12.065C99.6875 12.065 97.58 13.28 97.58 16.52V25.7825H93.215V8.2175H97.25Z" fill="#E82035"/>
<path d="M112.37 0.875V10.6025C113.405 8.7875 116.3 7.79 118.16 7.79C123.305 7.79 127.137 10.925 127.137 16.985C127.137 22.76 123.237 26.18 118.055 26.18C115.91 26.18 113.727 25.4675 112.37 23.3675L112.085 25.79H108.012V0.875H112.37ZM112.655 16.985C112.655 20.1575 115.017 22.1525 117.77 22.1525C120.56 22.1525 122.772 20.0525 122.772 16.985C122.772 13.8125 120.552 11.855 117.77 11.855C115.017 11.8475 112.655 13.9175 112.655 16.985Z" fill="#E82035"/>
<path d="M133.355 18.5525C133.64 20.7275 135.538 22.295 138.613 22.295C140.218 22.295 142.333 21.6875 143.33 20.66L146.12 23.405C144.26 25.325 141.223 26.255 138.538 26.255C132.463 26.255 128.848 22.5125 128.848 16.88C128.848 11.5325 132.493 7.685 138.215 7.685C144.118 7.685 147.8 11.3225 147.118 18.5525H133.355ZM142.94 14.9525C142.655 12.6725 140.87 11.5325 138.365 11.5325C136.003 11.5325 134.075 12.6725 133.43 14.9525H142.94Z" fill="#E82035"/>
<path d="M163.745 8.2175H167.93V25.7825H163.82L163.602 23.2175C162.605 25.2875 159.852 26.285 157.88 26.315C152.66 26.3525 148.797 23.1425 148.797 16.9775C148.797 10.9175 152.84 7.74499 157.985 7.78249C160.347 7.78249 162.597 8.885 163.602 10.6325L163.745 8.2175ZM153.162 16.985C153.162 20.3375 155.487 22.3325 158.382 22.3325C165.245 22.3325 165.245 11.675 158.382 11.675C155.487 11.675 153.162 13.6325 153.162 16.985Z" fill="#E82035"/>
<path d="M182.622 25.7825V16.3775C182.622 14.06 181.407 11.96 179.015 11.96C176.652 11.96 175.265 14.06 175.265 16.3775V25.7825H170.9V8.18H174.942L175.265 10.3175C176.195 8.5325 178.235 7.895 179.915 7.895C182.022 7.895 184.137 8.75 185.135 11.1725C186.71 8.675 188.742 7.9625 191.037 7.9625C196.04 7.9625 198.507 11.03 198.507 16.3025V25.7825H194.142V16.3025C194.142 13.985 193.175 12.0275 190.82 12.0275C188.465 12.0275 186.995 14.06 186.995 16.3775V25.7825H182.622Z" fill="#E82035"/>
</svg>
