<svg width="64" height="38" viewBox="0 0 64 38" fill="none" xmlns="http://www.w3.org/2000/svg">
<path d="M45 0.25H11.25C9.18 0.25 7.5 1.93 7.5 4C7.5 6.07 9.18 7.75 11.25 7.75H15C17.07 7.75 18.75 9.43 18.75 11.5C18.75 13.57 17.07 15.25 15 15.25H7.5C5.43 15.25 3.75 16.93 3.75 19C3.75 21.07 5.43 22.75 7.5 22.75H11.25C13.32 22.75 15 24.43 15 26.5C15 28.57 13.32 30.25 11.25 30.25H3.75C1.68 30.25 0 31.93 0 34C0 36.07 1.68 37.75 3.75 37.75H45C55.3575 37.75 63.75 29.3575 63.75 19C63.75 8.6425 55.3575 0.25 45 0.25Z" fill="#E82035"/>
<path d="M45 7.75C38.79 7.75 33.75 12.79 33.75 19C33.75 25.21 38.79 30.25 45 30.25C51.21 30.25 56.25 25.21 56.25 19C56.25 12.79 51.21 7.75 45 7.75ZM45 22.75C42.93 22.75 41.25 21.07 41.25 19C41.25 16.93 42.93 15.25 45 15.25C47.07 15.25 48.75 16.93 48.75 19C48.75 21.07 47.07 22.75 45 22.75Z" fill="white"/>
</svg>
