<svg width="24" height="24" viewBox="0 0 24 24" fill="none" xmlns="http://www.w3.org/2000/svg">
<g id="Icon/Navigation/Down (Double)">
<path id="Vector" d="M11.2032 12.0141L4.82816 5.63906C4.38754 5.19844 4.38754 4.48594 4.82816 4.05L5.88754 2.99062C6.32816 2.55 7.04066 2.55 7.4766 2.99062L11.9954 7.50937L16.5141 2.99062C16.9547 2.55 17.6672 2.55 18.1032 2.99062L19.1719 4.04531C19.6125 4.48594 19.6125 5.19844 19.1719 5.63437L12.7969 12.0094C12.3563 12.4547 11.6438 12.4547 11.2032 12.0141ZM12.7969 21.0141L19.1719 14.6391C19.6125 14.1984 19.6125 13.4859 19.1719 13.05L18.1125 11.9906C17.6719 11.55 16.9594 11.55 16.5235 11.9906L12 16.5047L7.48129 11.9859C7.04066 11.5453 6.32816 11.5453 5.89223 11.9859L4.82816 13.0453C4.38754 13.4859 4.38754 14.1984 4.82816 14.6344L11.2032 21.0094C11.6438 21.4547 12.3563 21.4547 12.7969 21.0141Z" fill="#FC5C65"/>
</g>
</svg>
