<svg width="12" height="12" viewBox="0 0 12 12" fill="none" xmlns="http://www.w3.org/2000/svg">
<path d="M5.60176 6.00703L2.41426 2.81953C2.19395 2.59922 2.19395 2.24297 2.41426 2.025L2.94395 1.49531C3.16426 1.275 3.52051 1.275 3.73848 1.49531L5.99785 3.75469L8.25723 1.49531C8.47754 1.275 8.83379 1.275 9.05176 1.49531L9.58613 2.02266C9.80645 2.24297 9.80645 2.59922 9.58613 2.81719L6.39863 6.00469C6.17832 6.22734 5.82207 6.22734 5.60176 6.00703ZM6.39863 10.507L9.58613 7.31953C9.80645 7.09922 9.80645 6.74297 9.58613 6.525L9.05645 5.99531C8.83613 5.775 8.47988 5.775 8.26191 5.99531L6.0002 8.25234L3.74082 5.99297C3.52051 5.77266 3.16426 5.77266 2.94629 5.99297L2.41426 6.52266C2.19395 6.74297 2.19395 7.09922 2.41426 7.31719L5.60176 10.5047C5.82207 10.7273 6.17832 10.7273 6.39863 10.507Z" fill="#FC5C65"/>
</svg>
