<svg width="24" height="24" viewBox="0 0 24 24" fill="none" xmlns="http://www.w3.org/2000/svg">
<g id="Icon/System/Hammer" clip-path="url(#clip0)">
<path id="Vector" d="M23.8046 9.41415L22.8617 8.47123C22.6013 8.21081 22.1792 8.21081 21.9188 8.47123L21.4475 8.94248L20.2434 7.73831C20.478 6.8504 20.2584 5.86748 19.5621 5.17123L17.6767 3.28581C15.0734 0.68248 10.8521 0.68248 8.24838 3.28581L12.0196 5.17123V5.95248C12.0196 6.65956 12.3005 7.3379 12.8009 7.8379L14.8484 9.8854C15.5446 10.5816 16.5275 10.8012 17.4155 10.5666L18.6196 11.7708L18.1484 12.2421C17.888 12.5025 17.888 12.9246 18.1484 13.185L19.0913 14.1279C19.3517 14.3883 19.7738 14.3883 20.0342 14.1279L23.8055 10.3566C24.065 10.0966 24.065 9.67456 23.8046 9.41415ZM11.858 8.78081C11.7038 8.62665 11.573 8.45623 11.4475 8.2829L0.818378 18.2066C-0.247038 19.2016 -0.275788 20.8812 0.754628 21.9121C1.78505 22.9429 3.46504 22.9141 4.46004 21.8483L14.3821 11.2204C14.2171 11.0991 14.053 10.9758 13.9055 10.8283L11.858 8.78081Z" fill="#DCE0E2"/>
</g>
<defs>
<clipPath id="clip0">
<rect width="24" height="24" fill="white"/>
</clipPath>
</defs>
</svg>
