<svg width="24" height="24" viewBox="0 0 24 24" fill="none" xmlns="http://www.w3.org/2000/svg">
<g id="Icon/System/Running">
<path id="Vector" d="M15 4.5C16.242 4.5 17.25 3.492 17.25 2.25C17.25 1.008 16.242 0 15 0C13.758 0 12.75 1.008 12.75 2.25C12.75 3.492 13.758 4.5 15 4.5ZM7.57802 14.88L6.88202 16.5H3.74402C2.91602 16.5 2.24402 17.172 2.24402 18C2.24402 18.828 2.91602 19.5 3.74402 19.5H7.37402C8.27402 19.5 9.09002 18.966 9.44402 18.138L9.85802 17.178L9.36002 16.884C8.55002 16.398 7.95002 15.69 7.57802 14.88ZM20.25 10.5H18.186L16.962 8.004C16.374 6.804 15.3 5.928 14.064 5.616L10.734 4.626C9.40802 4.308 8.02802 4.602 6.94202 5.43L5.08202 6.858C4.42202 7.362 4.30202 8.304 4.80602 8.958C5.31002 9.612 6.25202 9.738 6.90602 9.234L8.76602 7.806C9.12602 7.53 9.58202 7.428 9.94802 7.518L10.638 7.722L8.88002 11.82C8.28602 13.2 8.82002 14.82 10.11 15.582L14.094 17.934L12.804 22.044C12.558 22.836 12.996 23.676 13.788 23.922C13.938 23.97 14.088 23.994 14.238 23.994C14.874 23.994 15.468 23.586 15.666 22.944L17.148 18.21C17.424 17.238 17.01 16.188 16.134 15.66L13.266 13.968L14.736 10.296L15.684 12.24C16.062 13.008 16.854 13.5 17.706 13.5H20.238C21.066 13.5 21.738 12.828 21.738 12C21.738 11.172 21.078 10.5 20.25 10.5Z" fill="#DCE0E2"/>
</g>
</svg>
