<svg width="24" height="24" viewBox="0 0 24 24" fill="none" xmlns="http://www.w3.org/2000/svg">
<g id="Icon/Navigation/Up (Double)">
<path id="Vector" d="M12.7969 11.9859L19.1719 18.3609C19.6125 18.8016 19.6125 19.5141 19.1719 19.95L18.1125 21.0094C17.6719 21.45 16.9594 21.45 16.5235 21.0094L12 16.4953L7.48129 21.014C7.04066 21.4547 6.32816 21.4547 5.89223 21.014L4.82816 19.9547C4.38754 19.5141 4.38754 18.8015 4.82816 18.3656L11.2032 11.9906C11.6438 11.5453 12.3563 11.5453 12.7969 11.9859ZM11.2032 2.98593L4.82816 9.36093C4.38754 9.80155 4.38754 10.5141 4.82816 10.95L5.88754 12.0094C6.32816 12.45 7.04066 12.45 7.4766 12.0094L11.9954 7.49061L16.5141 12.0094C16.9547 12.45 17.6672 12.45 18.1032 12.0094L19.1625 10.95C19.6032 10.5094 19.6032 9.79686 19.1625 9.36093L12.7875 2.98593C12.3563 2.5453 11.6438 2.5453 11.2032 2.98593Z" fill="#26DE81"/>
</g>
</svg>
