<svg width="12" height="12" viewBox="0 0 12 12" fill="none" xmlns="http://www.w3.org/2000/svg">
<path d="M6.39863 5.99299L9.58613 9.18049C9.80645 9.40081 9.80645 9.75706 9.58613 9.97503L9.05645 10.5047C8.83613 10.725 8.47988 10.725 8.26191 10.5047L6.0002 8.24768L3.74082 10.5071C3.52051 10.7274 3.16426 10.7274 2.94629 10.5071L2.41426 9.97737C2.19395 9.75706 2.19395 9.40081 2.41426 9.18284L5.60176 5.99534C5.82207 5.77268 6.17832 5.77268 6.39863 5.99299ZM5.60176 1.49299L2.41426 4.68049C2.19395 4.90081 2.19395 5.25706 2.41426 5.47503L2.94395 6.00471C3.16426 6.22503 3.52051 6.22503 3.73848 6.00471L5.99785 3.74534L8.25723 6.00471C8.47754 6.22503 8.83379 6.22503 9.05176 6.00471L9.58144 5.47503C9.80176 5.25471 9.80176 4.89846 9.58144 4.68049L6.39395 1.49299C6.17832 1.27268 5.82207 1.27268 5.60176 1.49299Z" fill="#26DE81"/>
</svg>
