<svg width="48" height="32" viewBox="0 0 48 32" fill="none" xmlns="http://www.w3.org/2000/svg">
<path d="M28.6676 15.2346C31.741 13.0215 30.2414 8.7346 25.6251 8.71172V5.60004H23.7922V8.70964H22.4551V5.60004H20.6222V8.70964H16.8V10.7709H18.5218C18.9456 10.7709 19.2068 11.1349 19.2068 11.372V20.5116C19.2068 20.7487 18.9456 21.1127 18.5218 21.1127H16.8V23.174H20.6201V26.4H22.453V23.1719H23.7902V26.4H25.6231V23.1719C30.9079 23.1719 31.2 20.4076 31.2 18.8164C31.2 15.7317 28.6676 15.2346 28.6676 15.2346ZM22.4571 10.8396H24.0226C24.7426 10.8396 26.6743 11.008 26.6743 12.6616C26.6743 14.5191 25.2322 14.7624 24.7488 14.7624H22.4571V10.8396ZM24.7488 20.9421H22.4571V16.7031H24.4052C25.9646 16.7031 27.6144 16.9464 27.6144 18.6437C27.6123 20.5032 26.0098 20.9421 24.7488 20.9421Z" fill="#F2911B"/>
</svg>
