<svg width="48" height="32" viewBox="0 0 48 32" fill="none" xmlns="http://www.w3.org/2000/svg">
<path fill-rule="evenodd" clip-rule="evenodd" d="M17.6 14.207V19.5817H21.6585C21.7189 19.2406 21.8542 18.9224 22.0457 18.6478L17.6 14.207Z" fill="#35BAEB"/>
<path fill-rule="evenodd" clip-rule="evenodd" d="M17.6 5.59998V13.011L22.643 18.0509C22.9177 17.8595 23.2341 17.7264 23.5775 17.664V11.0184L17.6 5.59998Z" fill="#35BAEB"/>
<path fill-rule="evenodd" clip-rule="evenodd" d="M28.2271 15.1846C27.1969 14.2819 25.8773 13.7057 24.4246 13.61V17.664C24.768 17.7243 25.0844 17.8595 25.3591 18.0508L28.2271 15.1846Z" fill="#35BAEB"/>
<path fill-rule="evenodd" clip-rule="evenodd" d="M28.8245 15.7816L25.9565 18.6479C26.1479 18.9224 26.2832 19.2386 26.3436 19.5818H30.4C30.3043 18.1299 29.7278 16.8112 28.8245 15.7816Z" fill="#35BAEB"/>
<path fill-rule="evenodd" clip-rule="evenodd" d="M22.0457 21.3601C21.8542 21.0856 21.7189 20.7694 21.6586 20.4262H17.6021C17.6958 21.878 18.2744 23.1968 19.1777 24.2264L22.0457 21.3601Z" fill="#35BAEB"/>
<path fill-rule="evenodd" clip-rule="evenodd" d="M19.7751 24.8254C20.8053 25.7281 22.1248 26.3043 23.5776 26.4V22.3461C23.2362 22.2857 22.9178 22.1505 22.6431 21.9592L19.7751 24.8254Z" fill="#35BAEB"/>
<path fill-rule="evenodd" clip-rule="evenodd" d="M28.8245 24.2284C29.7278 23.1988 30.3043 21.8801 30.4 20.4283H26.3436C26.2811 20.7694 26.1479 21.0876 25.9565 21.3622L28.8245 24.2284Z" fill="#35BAEB"/>
<path fill-rule="evenodd" clip-rule="evenodd" d="M25.357 21.9592C25.0823 22.1505 24.7659 22.2857 24.4225 22.3461V26.4C25.8753 26.3043 27.1969 25.7281 28.2251 24.8254L25.357 21.9592Z" fill="#35BAEB"/>
</svg>
