<svg width="32" height="32" viewBox="0 0 32 32" fill="none" xmlns="http://www.w3.org/2000/svg">
<rect width="32" height="32" rx="4" fill="#20BF6B" fill-opacity="0.1"/>
<path d="M18.0375 15.2937L14.6625 14.3063C14.2718 14.1937 14 13.8281 14 13.4219C14 12.9125 14.4125 12.5 14.9218 12.5H16.9937C17.375 12.5 17.75 12.6156 18.0625 12.8281C18.2531 12.9563 18.5093 12.925 18.6718 12.7656L19.7593 11.7031C19.9812 11.4875 19.95 11.1281 19.7031 10.9375C18.9375 10.3375 17.9812 10.0031 17 10V8.5C17 8.225 16.775 8 16.5 8H15.5C15.225 8 15 8.225 15 8.5V10H14.9218C12.9312 10 11.3312 11.7094 11.5156 13.7375C11.6468 15.1781 12.7468 16.35 14.1343 16.7563L17.3375 17.6938C17.7281 17.8094 18 18.1719 18 18.5781C18 19.0875 17.5875 19.5 17.0781 19.5H15.0062C14.625 19.5 14.25 19.3844 13.9375 19.1719C13.7468 19.0437 13.4906 19.075 13.3281 19.2344L12.2406 20.2969C12.0187 20.5125 12.05 20.8719 12.2968 21.0625C13.0625 21.6625 14.0187 21.9969 15 22V23.5C15 23.775 15.225 24 15.5 24H16.5C16.775 24 17 23.775 17 23.5V21.9937C18.4562 21.9656 19.8218 21.1 20.3031 19.7219C20.975 17.7969 19.8468 15.8219 18.0375 15.2937Z" fill="#20BF6B"/>
</svg>
