<svg width="32" height="32" viewBox="0 0 32 32" fill="none" xmlns="http://www.w3.org/2000/svg">
<rect width="32" height="32" rx="4" fill="#0081C2" fill-opacity="0.1"/>
<path d="M20.0336 17.2931C19.9536 17.2931 19.8736 17.2963 19.7952 17.3011C19.7696 17.3027 19.744 17.3027 19.7184 17.3027C18.9984 17.3027 18.4128 16.7201 18.4128 16.0016C18.4128 15.2831 18.9968 14.7005 19.7184 14.7005C19.736 14.7005 19.752 14.7005 19.768 14.7021C19.856 14.7085 19.944 14.7117 20.032 14.7117C21.8912 14.7117 23.3968 13.209 23.3968 11.3559C23.3968 9.5027 21.8896 8 20.032 8C18.1728 8 16.6672 9.5027 16.6672 11.3559C16.6672 12.0728 16.8928 12.7385 17.2784 13.2843C17.3952 13.4795 17.464 13.7083 17.464 13.9516C17.464 14.6701 16.88 15.2527 16.1584 15.2527C15.6448 15.2527 15.2016 14.9566 14.9888 14.5277C14.4416 13.4123 13.2928 12.6441 11.9648 12.6441C10.1056 12.6441 8.59998 14.1468 8.59998 16C8.59998 17.8532 10.1072 19.3559 11.9648 19.3559C13.2928 19.3559 14.44 18.5893 14.9888 17.4755C15.2016 17.045 15.6464 16.749 16.16 16.749C16.8816 16.749 17.4656 17.3315 17.4656 18.05C17.4656 18.2981 17.3952 18.5317 17.2736 18.7285C16.8928 19.2727 16.6704 19.9336 16.6704 20.6457C16.6704 22.4989 18.176 24 20.0352 24C21.8928 24 23.4 22.4973 23.4 20.6457C23.4 18.7942 21.8912 17.2931 20.0336 17.2931Z" fill="#0081C2"/>
</svg>
