<svg width="32" height="32" viewBox="0 0 32 32" fill="none" xmlns="http://www.w3.org/2000/svg">
<rect width="32" height="32" rx="4" fill="#F2911B" fill-opacity="0.1"/>
<path d="M19.6304 15.4039C22.0208 13.6802 20.8544 10.3414 17.264 10.3235V7.90002H15.8384V10.3219H14.7984V7.90002H13.3728V10.3219H10.4V11.9273H11.7392C12.0688 11.9273 12.272 12.2108 12.272 12.3955V19.5138C12.272 19.6985 12.0688 19.982 11.7392 19.982H10.4V21.5874H13.3712V24.1H14.7968V21.5858H15.8368V24.1H17.2624V21.5858C21.3728 21.5858 21.6 19.4328 21.6 18.1935C21.6 15.791 19.6304 15.4039 19.6304 15.4039ZM14.8 11.9808H16.0176C16.5776 11.9808 18.08 12.112 18.08 13.3999C18.08 14.8466 16.9584 15.0361 16.5824 15.0361H14.8V11.9808ZM16.5824 19.8491H14.8V16.5476H16.3152C17.528 16.5476 18.8112 16.7371 18.8112 18.059C18.8096 19.5073 17.5632 19.8491 16.5824 19.8491Z" fill="#F2911B"/>
</svg>
