<svg width="16" height="16" viewBox="0 0 16 16" fill="none" xmlns="http://www.w3.org/2000/svg">
<path d="M7.46879 8.00937L3.21879 3.75938C2.92504 3.46563 2.92504 2.99063 3.21879 2.7L3.92504 1.99375C4.21879 1.7 4.69379 1.7 4.98441 1.99375L7.99691 5.00625L11.0094 1.99375C11.3032 1.7 11.7782 1.7 12.0688 1.99375L12.7813 2.69688C13.075 2.99063 13.075 3.46562 12.7813 3.75625L8.53129 8.00625C8.23754 8.30313 7.76254 8.30312 7.46879 8.00937ZM8.53129 14.0094L12.7813 9.75937C13.075 9.46562 13.075 8.99062 12.7813 8.7L12.075 7.99375C11.7813 7.7 11.3063 7.7 11.0157 7.99375L8.00004 11.0031L4.98754 7.99062C4.69379 7.69688 4.21879 7.69688 3.92816 7.99062L3.21879 8.69687C2.92504 8.99062 2.92504 9.46563 3.21879 9.75625L7.46879 14.0063C7.76254 14.3031 8.23754 14.3031 8.53129 14.0094Z" fill="#FC5C65"/>
</svg>
