<svg width="232" height="72" viewBox="0 0 232 72" fill="none" xmlns="http://www.w3.org/2000/svg">
<path d="M0 36C0 16.1177 16.1177 0 36 0H196C215.882 0 232 16.1177 232 36V36C232 55.8823 215.882 72 196 72H36C16.1177 72 0 55.8823 0 36V36Z" fill="url(#paint0_linear)"/>
<g filter="url(#filter0_d)">
<rect x="16" y="16" width="40" height="40" rx="20" fill="white"/>
<path d="M28.5 42.4292H43.5V43.5H28.5V42.4292Z" fill="#2A3135"/>
<path d="M40.8209 35.4633L40.065 34.7058L36.5367 38.2358V28.5H35.4642V38.2358L31.9342 34.705L31.1808 35.4633L36 40.2875L40.8209 35.4633Z" fill="#2A3135"/>
<rect x="16.5" y="16.5" width="39" height="39" rx="19.5" stroke="#333333" stroke-opacity="0.05"/>
</g>
<path d="M81.0114 42H83.4716V37.1932H88.2045V35.1648H83.4716V32.392H88.7159V30.3636H81.0114V42ZM90.5047 42H92.9251V37.0625C92.9251 35.9886 93.7092 35.25 94.7774 35.25C95.1126 35.25 95.5728 35.3068 95.8001 35.3807V33.233C95.5842 33.1818 95.2831 33.1477 95.0387 33.1477C94.0615 33.1477 93.2603 33.7159 92.9422 34.7955H92.8512V33.2727H90.5047V42ZM100.943 42.1705C103.102 42.1705 104.556 41.1193 104.897 39.5L102.658 39.3523C102.414 40.017 101.789 40.3636 100.982 40.3636C99.7721 40.3636 99.0051 39.5625 99.0051 38.2614V38.2557H104.948V37.5909C104.948 34.625 103.153 33.1591 100.846 33.1591C98.2778 33.1591 96.613 34.983 96.613 37.6761C96.613 40.4432 98.2551 42.1705 100.943 42.1705ZM99.0051 36.7557C99.0562 35.7614 99.8119 34.9659 100.886 34.9659C101.937 34.9659 102.664 35.7159 102.67 36.7557H99.0051ZM110.825 42.1705C112.984 42.1705 114.439 41.1193 114.78 39.5L112.541 39.3523C112.297 40.017 111.672 40.3636 110.865 40.3636C109.655 40.3636 108.888 39.5625 108.888 38.2614V38.2557H114.831V37.5909C114.831 34.625 113.035 33.1591 110.728 33.1591C108.16 33.1591 106.496 34.983 106.496 37.6761C106.496 40.4432 108.138 42.1705 110.825 42.1705ZM108.888 36.7557C108.939 35.7614 109.694 34.9659 110.768 34.9659C111.819 34.9659 112.547 35.7159 112.552 36.7557H108.888ZM124.924 42C128.469 42 130.617 39.8068 130.617 36.1705C130.617 32.5455 128.469 30.3636 124.958 30.3636H120.799V42H124.924ZM123.259 39.892V32.4716H124.827C127.009 32.4716 128.162 33.5852 128.162 36.1705C128.162 38.767 127.009 39.892 124.822 39.892H123.259ZM136.657 42.1705C139.305 42.1705 140.953 40.358 140.953 37.6705C140.953 34.9659 139.305 33.1591 136.657 33.1591C134.009 33.1591 132.362 34.9659 132.362 37.6705C132.362 40.358 134.009 42.1705 136.657 42.1705ZM136.669 40.2955C135.447 40.2955 134.822 39.1761 134.822 37.6534C134.822 36.1307 135.447 35.0057 136.669 35.0057C137.867 35.0057 138.492 36.1307 138.492 37.6534C138.492 39.1761 137.867 40.2955 136.669 40.2955ZM144.349 42H146.906L148.406 36.5114H148.514L150.014 42H152.577L154.946 33.2727H152.503L151.173 39.1023H151.099L149.668 33.2727H147.264L145.855 39.1364H145.776L144.423 33.2727H141.974L144.349 42ZM158.978 36.9545C158.983 35.8295 159.654 35.1705 160.631 35.1705C161.603 35.1705 162.188 35.8068 162.182 36.875V42H164.603V36.4432C164.603 34.4091 163.409 33.1591 161.591 33.1591C160.296 33.1591 159.358 33.7955 158.966 34.8125H158.864V33.2727H156.557V42H158.978V36.9545ZM169.251 30.3636H166.83V42H169.251V30.3636ZM175.453 42.1705C178.101 42.1705 179.748 40.358 179.748 37.6705C179.748 34.9659 178.101 33.1591 175.453 33.1591C172.805 33.1591 171.157 34.9659 171.157 37.6705C171.157 40.358 172.805 42.1705 175.453 42.1705ZM175.464 40.2955C174.243 40.2955 173.618 39.1761 173.618 37.6534C173.618 36.1307 174.243 35.0057 175.464 35.0057C176.663 35.0057 177.288 36.1307 177.288 37.6534C177.288 39.1761 176.663 40.2955 175.464 40.2955ZM184.131 42.1648C185.421 42.1648 186.256 41.6023 186.682 40.7898H186.75V42H189.046V36.1136C189.046 34.0341 187.284 33.1591 185.341 33.1591C183.25 33.1591 181.875 34.1591 181.54 35.75L183.779 35.9318C183.943 35.3523 184.46 34.9261 185.33 34.9261C186.154 34.9261 186.625 35.3409 186.625 36.0568V36.0909C186.625 36.6534 186.029 36.7273 184.511 36.875C182.784 37.0341 181.233 37.6136 181.233 39.5625C181.233 41.2898 182.466 42.1648 184.131 42.1648ZM184.824 40.4943C184.08 40.4943 183.546 40.1477 183.546 39.483C183.546 38.8011 184.108 38.4659 184.96 38.3466C185.489 38.2727 186.352 38.1477 186.642 37.9545V38.8807C186.642 39.7955 185.886 40.4943 184.824 40.4943ZM194.459 42.142C195.868 42.142 196.601 41.3295 196.937 40.6023H197.039V42H199.425V30.3636H197.01V34.7386H196.937C196.613 34.0284 195.914 33.1591 194.454 33.1591C192.539 33.1591 190.92 34.6477 190.92 37.6477C190.92 40.5682 192.471 42.142 194.459 42.142ZM195.226 40.2159C194.039 40.2159 193.391 39.1591 193.391 37.6364C193.391 36.125 194.027 35.0852 195.226 35.0852C196.402 35.0852 197.062 36.0795 197.062 37.6364C197.062 39.1932 196.391 40.2159 195.226 40.2159Z" fill="white"/>
<defs>
<filter id="filter0_d" x="4" y="6" width="64" height="64" filterUnits="userSpaceOnUse" color-interpolation-filters="sRGB">
<feFlood flood-opacity="0" result="BackgroundImageFix"/>
<feColorMatrix in="SourceAlpha" type="matrix" values="0 0 0 0 0 0 0 0 0 0 0 0 0 0 0 0 0 0 127 0" result="hardAlpha"/>
<feOffset dy="2"/>
<feGaussianBlur stdDeviation="6"/>
<feColorMatrix type="matrix" values="0 0 0 0 1 0 0 0 0 1 0 0 0 0 1 0 0 0 0.35 0"/>
<feBlend mode="normal" in2="BackgroundImageFix" result="effect1_dropShadow"/>
<feBlend mode="normal" in="SourceGraphic" in2="effect1_dropShadow" result="shape"/>
</filter>
<linearGradient id="paint0_linear" x1="-4.32134e-07" y1="36" x2="232" y2="36" gradientUnits="userSpaceOnUse">
<stop stop-color="#4A00E0"/>
<stop offset="1" stop-color="#8E2DE2"/>
</linearGradient>
</defs>
</svg>
