<svg width="236" height="64" viewBox="0 0 236 64" fill="none" xmlns="http://www.w3.org/2000/svg">
<g filter="url(#filter0_d)">
<path d="M68.1072 23H71.1825V16.9915H77.0987V14.456H71.1825V10.9901H77.7379V8.45455H68.1072V23ZM83.6817 8.45455H80.6064V23H83.6817V8.45455ZM96.6567 13.1562H99.7817C99.384 10.2798 96.8485 8.25568 93.5602 8.25568C89.7178 8.25568 86.7562 11.0256 86.7562 15.7415C86.7562 20.3438 89.5261 23.1989 93.6241 23.1989C97.296 23.1989 99.9167 20.8764 99.9167 17.0483V15.2159H93.83V17.5312H96.955C96.9124 19.3352 95.6837 20.4787 93.6383 20.4787C91.33 20.4787 89.8741 18.7528 89.8741 15.7131C89.8741 12.6875 91.3869 10.9759 93.6099 10.9759C95.1937 10.9759 96.2661 11.7926 96.6567 13.1562ZM103.027 8.45455V23H106.01V13.4972H106.13L109.895 22.929H111.926L115.69 13.5327H115.811V23H118.794V8.45455H115.001L110.995 18.2273H110.825L106.819 8.45455H103.027ZM124.81 23L125.89 19.6832H131.138L132.218 23H135.513L130.499 8.45455H126.536L121.515 23H124.81ZM126.671 17.2827L128.461 11.7784H128.575L130.364 17.2827H126.671ZM23.5907 38.9901H28.0438V51H31.0836V38.9901H35.5367V36.4545H23.5907V38.9901ZM38.304 51H48.1336V48.4645H41.3793V44.9915H47.6009V42.456H41.3793V38.9901H48.1052V36.4545H38.304V51ZM51.3501 36.4545V51H54.3331V41.4972H54.4538L58.218 50.929H60.2493L64.0135 41.5327H64.1342V51H67.1172V36.4545H63.3246L59.3189 46.2273H59.1484L55.1428 36.4545H51.3501ZM70.6267 51H73.702V46.2841H76.2872C79.6324 46.2841 81.5784 44.2884 81.5784 41.3835C81.5784 38.4929 79.6679 36.4545 76.3653 36.4545H70.6267V51ZM73.702 43.8196V38.9688H75.7759C77.5514 38.9688 78.4108 39.9347 78.4108 41.3835C78.4108 42.8253 77.5514 43.8196 75.7901 43.8196H73.702ZM84.3759 51H93.687V48.4645H87.4512V36.4545H84.3759V51ZM99.4018 51L100.481 47.6832H105.73L106.809 51H110.105L105.091 36.4545H101.128L96.1063 51H99.4018ZM101.263 45.2827L103.052 39.7784H103.166L104.956 45.2827H101.263ZM110.305 38.9901H114.758V51H117.798V38.9901H122.251V36.4545H110.305V38.9901ZM125.018 51H134.848V48.4645H128.093V44.9915H134.315V42.456H128.093V38.9901H134.819V36.4545H125.018V51Z" fill="white"/>
</g>
<g filter="url(#filter1_d)">
<path d="M176 10C176 5.58172 179.582 2 184 2H224C228.418 2 232 5.58172 232 10V50C232 54.4183 228.418 58 224 58H184C179.582 58 176 54.4183 176 50V10Z" fill="#2A3135"/>
<g clip-path="url(#clip0)">
<path d="M198 48C201.312 48 204 45.312 204 42V36H198C194.688 36 192 38.688 192 42C192 45.312 194.688 48 198 48Z" fill="#0ACF83"/>
<path d="M192 30C192 26.688 194.688 24 198 24H204V36H198C194.688 36 192 33.312 192 30Z" fill="#A259FF"/>
<path d="M192 18C192 14.688 194.688 12 198 12H204V24H198C194.688 24 192 21.312 192 18Z" fill="#F24E1E"/>
<path d="M204 12H210C213.312 12 216 14.688 216 18C216 21.312 213.312 24 210 24H204V12Z" fill="#FF7262"/>
<path d="M216 30C216 33.312 213.312 36 210 36C206.688 36 204 33.312 204 30C204 26.688 206.688 24 210 24C213.312 24 216 26.688 216 30Z" fill="#1ABCFE"/>
</g>
</g>
<defs>
<filter id="filter0_d" x="19.5907" y="6.25574" width="119.923" height="50.7443" filterUnits="userSpaceOnUse" color-interpolation-filters="sRGB">
<feFlood flood-opacity="0" result="BackgroundImageFix"/>
<feColorMatrix in="SourceAlpha" type="matrix" values="0 0 0 0 0 0 0 0 0 0 0 0 0 0 0 0 0 0 127 0" result="hardAlpha"/>
<feOffset dy="2"/>
<feGaussianBlur stdDeviation="2"/>
<feColorMatrix type="matrix" values="0 0 0 0 1 0 0 0 0 1 0 0 0 0 1 0 0 0 0.15 0"/>
<feBlend mode="normal" in2="BackgroundImageFix" result="effect1_dropShadow"/>
<feBlend mode="normal" in="SourceGraphic" in2="effect1_dropShadow" result="shape"/>
</filter>
<filter id="filter1_d" x="172" y="0" width="64" height="64" filterUnits="userSpaceOnUse" color-interpolation-filters="sRGB">
<feFlood flood-opacity="0" result="BackgroundImageFix"/>
<feColorMatrix in="SourceAlpha" type="matrix" values="0 0 0 0 0 0 0 0 0 0 0 0 0 0 0 0 0 0 127 0" result="hardAlpha"/>
<feOffset dy="2"/>
<feGaussianBlur stdDeviation="2"/>
<feColorMatrix type="matrix" values="0 0 0 0 0.164706 0 0 0 0 0.192157 0 0 0 0 0.207843 0 0 0 0.15 0"/>
<feBlend mode="normal" in2="BackgroundImageFix" result="effect1_dropShadow"/>
<feBlend mode="normal" in="SourceGraphic" in2="effect1_dropShadow" result="shape"/>
</filter>
<clipPath id="clip0">
<rect width="24" height="36" fill="white" transform="translate(192 12)"/>
</clipPath>
</defs>
</svg>
