<svg width="256" height="56" viewBox="0 0 256 56" fill="none" xmlns="http://www.w3.org/2000/svg">
<path d="M0 16C0 7.16344 7.16344 0 16 0H112C120.837 0 128 7.16344 128 16V40C128 48.8366 120.837 56 112 56H16C7.16344 56 0 48.8366 0 40V16Z" fill="#EA4C89"/>
<path d="M18.08 38H23.6084V30.0455H31.5232V25.5909H23.6084V22.0909H32.3982V17.6364H18.08V38ZM42.2497 38H47.7781V31.2784H49.6872L53.2667 38H59.2724L55.1361 30.4034C57.3037 29.3594 58.5963 27.3807 58.5963 24.5568C58.5963 20.2216 55.5636 17.6364 51.0395 17.6364H42.2497V38ZM47.7781 26.983V22.0511H49.727C51.6659 22.0511 52.8292 22.8068 52.8292 24.5568C52.8292 26.2969 51.6659 26.983 49.727 26.983H47.7781ZM68.7709 38H83.4073V33.5455H74.2993V30.0455H82.6914V25.5909H74.2993V22.0909H83.4471V17.6364H68.7709V38ZM94.007 38H108.643V33.5455H99.5354V30.0455H107.927V25.5909H99.5354V22.0909H108.683V17.6364H94.007V38Z" fill="white"/>
<path d="M149.566 38H159.152C163.576 38 166.311 35.5838 166.311 32.233C166.311 29.3594 164.193 27.4801 161.578 27.3807V27.1818C163.934 26.7145 165.515 24.9744 165.515 22.7273C165.515 19.625 163.049 17.6364 158.396 17.6364H149.566V38ZM155.095 33.5852V29.2898H157.76C159.44 29.2898 160.464 30.0852 160.464 31.517C160.464 32.8793 159.539 33.5852 157.68 33.5852H155.095ZM155.095 25.8693V21.9716H157.441C158.813 21.9716 159.828 22.6676 159.828 23.9205C159.828 25.1733 158.813 25.8693 157.362 25.8693H155.095ZM181.616 17.6364H176.088V38H181.616V17.6364ZM192.054 38H206.691V33.5455H197.583V30.0455H205.975V25.5909H197.583V22.0909H206.73V17.6364H192.054V38ZM228.268 24H233.557C233.537 20.0028 230.455 17.358 225.523 17.358C220.681 17.358 217.26 19.9631 217.29 23.8409C217.28 27.0227 219.488 28.7926 223.097 29.5682L225.125 30.0057C227.393 30.5028 228.168 31.0696 228.188 31.9943C228.168 32.9986 227.253 33.7045 225.483 33.7045C223.366 33.7045 222.113 32.7102 222.023 30.8409H216.773C216.793 35.9517 220.253 38.2386 225.563 38.2386C230.723 38.2386 233.816 36.0114 233.836 31.9943C233.816 28.892 231.966 26.7145 227.472 25.75L225.802 25.392C223.873 24.9844 223.008 24.4176 223.057 23.4432C223.067 22.5483 223.813 21.892 225.523 21.892C227.313 21.892 228.158 22.6776 228.268 24Z" fill="white"/>
</svg>
