<svg width="16" height="16" viewBox="0 0 16 16" fill="none" xmlns="http://www.w3.org/2000/svg">
<path d="M8.53129 7.99061L12.7813 12.2406C13.075 12.5344 13.075 13.0094 12.7813 13.3L12.075 14.0062C11.7813 14.3 11.3063 14.3 11.0157 14.0062L8.00004 10.9969L4.98754 14.0094C4.69379 14.3031 4.21879 14.3031 3.92816 14.0094L3.21879 13.3031C2.92504 13.0094 2.92504 12.5344 3.21879 12.2437L7.46879 7.99373C7.76254 7.69686 8.23754 7.69686 8.53129 7.99061ZM7.46879 1.99061L3.21879 6.24061C2.92504 6.53436 2.92504 7.00936 3.21879 7.29998L3.92504 8.00623C4.21879 8.29998 4.69379 8.29998 4.98441 8.00623L7.99691 4.99373L11.0094 8.00623C11.3032 8.29998 11.7782 8.29998 12.0688 8.00623L12.775 7.29998C13.0688 7.00623 13.0688 6.53123 12.775 6.24061L8.52504 1.99061C8.23754 1.69686 7.76254 1.69686 7.46879 1.99061Z" fill="#26DE81"/>
</svg>
