<svg width="24" height="24" viewBox="0 0 24 24" fill="none" xmlns="http://www.w3.org/2000/svg">
<path d="M3.1234 13.5703L2.08102 12.5297C1.63966 12.0891 1.63966 11.3766 2.08102 10.9406L11.2041 1.82815C11.6455 1.38752 12.3592 1.38752 12.7959 1.82815L21.919 10.936C22.3603 11.3766 22.3603 12.0891 21.919 12.525L20.8766 13.5656C20.4305 14.011 19.7028 14.0016 19.2661 13.5469L13.8805 7.90315V21.375C13.8805 21.9984 13.3781 22.5 12.7536 22.5H11.2511C10.6266 22.5 10.1242 21.9984 10.1242 21.375V7.90315L4.73391 13.5516C4.29724 14.011 3.56946 14.0203 3.1234 13.5703Z" fill="#26DE81" fill-opacity="0.6"/>
</svg>
