<svg width="24" height="24" viewBox="0 0 24 24" fill="none" xmlns="http://www.w3.org/2000/svg">
<path d="M15.0562 10.9406L9.99369 9.45938C9.40775 9.29063 8.99994 8.74219 8.99994 8.13281C8.99994 7.36875 9.61869 6.75 10.3828 6.75H13.4906C14.0624 6.75 14.6249 6.92344 15.0937 7.24219C15.3796 7.43437 15.764 7.3875 16.0078 7.14844L17.639 5.55469C17.9718 5.23125 17.9249 4.69219 17.5546 4.40625C16.4062 3.50625 14.9718 3.00469 13.4999 3V0.75C13.4999 0.3375 13.1624 0 12.7499 0H11.2499C10.8374 0 10.4999 0.3375 10.4999 0.75V3H10.3828C7.39682 3 4.99682 5.56406 5.27338 8.60625C5.47025 10.7672 7.12025 12.525 9.2015 13.1344L14.0062 14.5406C14.5921 14.7141 14.9999 15.2578 14.9999 15.8672C14.9999 16.6313 14.3812 17.25 13.6171 17.25H10.5093C9.93744 17.25 9.37494 17.0766 8.90619 16.7578C8.62025 16.5656 8.23588 16.6125 7.99213 16.8516L6.36088 18.4453C6.02807 18.7687 6.07494 19.3078 6.44525 19.5938C7.59369 20.4937 9.02807 20.9953 10.4999 21V23.25C10.4999 23.6625 10.8374 24 11.2499 24H12.7499C13.1624 24 13.4999 23.6625 13.4999 23.25V20.9906C15.6843 20.9484 17.7328 19.65 18.4546 17.5828C19.4624 14.6953 17.7703 11.7328 15.0562 10.9406Z" fill="#868C90"/>
</svg>
