<svg width="40" height="40" viewBox="0 0 40 40" fill="none" xmlns="http://www.w3.org/2000/svg">
<circle cx="20" cy="20" r="19.5" stroke="#DCE0E2"/>
<path d="M12 24.6656V26C12 27.1031 14.6875 28 18 28C21.3125 28 24 27.1031 24 26V24.6656C22.7094 25.575 20.35 26 18 26C15.65 26 13.2906 25.575 12 24.6656ZM22 16C25.3125 16 28 15.1031 28 14C28 12.8969 25.3125 12 22 12C18.6875 12 16 12.8969 16 14C16 15.1031 18.6875 16 22 16ZM12 21.3875V23C12 24.1031 14.6875 25 18 25C21.3125 25 24 24.1031 24 23V21.3875C22.7094 22.45 20.3469 23 18 23C15.6531 23 13.2906 22.45 12 21.3875ZM25 21.7312C26.7906 21.3844 28 20.7406 28 20V18.6656C27.275 19.1781 26.2094 19.5281 25 19.7438V21.7312ZM18 17C14.6875 17 12 18.1188 12 19.5C12 20.8813 14.6875 22 18 22C21.3125 22 24 20.8813 24 19.5C24 18.1188 21.3125 17 18 17ZM24.8531 18.7594C26.7281 18.4219 28 17.7594 28 17V15.6656C26.8906 16.45 24.9844 16.8719 22.9781 16.9719C23.9 17.4188 24.5781 18.0188 24.8531 18.7594Z" fill="#DCE0E2"/>
</svg>
