<svg width="12" height="12" viewBox="0 0 12 12" fill="none" xmlns="http://www.w3.org/2000/svg">
<path d="M10.8094 3H1.875C1.66781 3 1.5 2.83219 1.5 2.625C1.5 2.41781 1.66781 2.25 1.875 2.25H10.875C11.0822 2.25 11.25 2.08219 11.25 1.875C11.25 1.25367 10.7463 0.75 10.125 0.75H1.5C0.671484 0.75 0 1.42148 0 2.25V9.75C0 10.5785 0.671484 11.25 1.5 11.25H10.8094C11.4661 11.25 12 10.7454 12 10.125V4.125C12 3.50461 11.4661 3 10.8094 3ZM9.75 7.875C9.33586 7.875 9 7.53914 9 7.125C9 6.71086 9.33586 6.375 9.75 6.375C10.1641 6.375 10.5 6.71086 10.5 7.125C10.5 7.53914 10.1641 7.875 9.75 7.875Z" fill="#DCE0E2"/>
</svg>
