<svg width="24" height="26" viewBox="0 0 24 26" fill="none" xmlns="http://www.w3.org/2000/svg">
<path d="M18.541 15.1012C18.4112 15.1012 18.2815 15.1064 18.1544 15.1142C18.1129 15.1168 18.0714 15.1168 18.0298 15.1168C16.8623 15.1168 15.9126 14.1702 15.9126 13.0026C15.9126 11.835 16.8597 10.8884 18.0298 10.8884C18.0584 10.8884 18.0843 10.8884 18.1103 10.891C18.253 10.9014 18.3957 10.9066 18.5384 10.9066C21.5533 10.9066 23.9948 8.46469 23.9948 5.45329C23.9948 2.44189 21.5507 0 18.5384 0C15.5235 0 13.0819 2.44189 13.0819 5.45329C13.0819 6.61832 13.4478 7.70014 14.0731 8.58691C14.2625 8.90418 14.3741 9.27606 14.3741 9.67133C14.3741 10.839 13.427 11.7856 12.2569 11.7856C11.424 11.7856 10.7053 11.3045 10.3602 10.6075C9.47287 8.79496 7.60995 7.54671 5.45643 7.54671C2.44151 7.54671 0 9.9886 0 13C0 16.0114 2.44411 18.4533 5.45643 18.4533C7.60995 18.4533 9.47027 17.2076 10.3602 15.3977C10.7053 14.6981 11.4266 14.217 12.2595 14.217C13.4296 14.217 14.3766 15.1636 14.3766 16.3313C14.3766 16.7343 14.2625 17.114 14.0653 17.4339C13.4478 18.3181 13.0871 19.3921 13.0871 20.5493C13.0871 23.5607 15.5286 26 18.5436 26C21.5559 26 24 23.5581 24 20.5493C24 17.5405 21.5533 15.1012 18.541 15.1012Z" fill="#0081C2"/>
</svg>
