<svg width="26" height="26" viewBox="0 0 26 26" fill="none" xmlns="http://www.w3.org/2000/svg">
<path fill-rule="evenodd" clip-rule="evenodd" d="M12.9453 0.028363C14.905 0.0314848 16.838 0.484228 18.5967 1.352C18.8667 1.47806 19.1367 1.61988 19.4067 1.77745L18.2105 2.84582L16.4209 0.954908L13.3974 3.65891L11.5984 1.69236L5.94701 6.78836L9.55448 10.7876L8.13221 12.0451L11.6926 16.0444L10.3363 17.3018L15.4225 22.9745L18.4366 20.1855L21.0456 23.1731C20.506 23.593 19.9362 23.9722 19.3408 24.3076C17.6164 25.2894 15.6904 25.8608 13.7113 25.9776C11.7322 26.0944 9.75281 25.7536 7.92563 24.9814C6.09846 24.2092 4.47228 23.0263 3.1724 21.5237C1.87253 20.0212 0.933651 18.2391 0.428124 16.3149C-0.0774039 14.3907 -0.136086 12.3757 0.256591 10.4251C0.649269 8.47451 1.48283 6.64046 2.69304 5.06425C3.90325 3.48805 5.4578 2.21177 7.23692 1.33376C9.01603 0.455746 10.9722 -0.000559525 12.9547 5.14893e-07L12.9453 0.028363Z" fill="#3C6BAD"/>
<path fill-rule="evenodd" clip-rule="evenodd" d="M10.5906 12.2058L13.6706 9.42615L16.4398 12.5178L13.3598 15.2974L10.5906 12.2058Z" fill="#3C6BAD"/>
<path fill-rule="evenodd" clip-rule="evenodd" d="M12.7758 17.5476L15.8558 14.7679L18.6344 17.8596L15.5544 20.6392L12.7758 17.5476Z" fill="#3C6BAD"/>
<path fill-rule="evenodd" clip-rule="evenodd" d="M8.38647 6.9302L11.4665 4.14111L14.2357 7.23275L11.1556 10.0218L8.38647 6.9302Z" fill="#3C6BAD"/>
<path fill-rule="evenodd" clip-rule="evenodd" d="M14.038 5.42686L16.3456 3.3374L18.4272 5.66322L16.1196 7.74322L14.038 5.42686Z" fill="#3C6BAD"/>
<path fill-rule="evenodd" clip-rule="evenodd" d="M18.1447 14.9949L20.4523 12.9054L22.5339 15.2218L20.2262 17.3112L18.1447 14.9949Z" fill="#3C6BAD"/>
<path fill-rule="evenodd" clip-rule="evenodd" d="M20.1697 19.6749L22.4867 17.5854L24.5589 19.9018L22.2513 21.9913L20.1697 19.6749Z" fill="#3C6BAD"/>
<path fill-rule="evenodd" clip-rule="evenodd" d="M21.1021 8.94395L22.6468 7.54468L24.0313 9.09522L22.4961 10.485L21.1021 8.94395Z" fill="#3C6BAD"/>
<path fill-rule="evenodd" clip-rule="evenodd" d="M19.1335 4.34905L20.6783 2.95923L22.0628 4.50032L20.5276 5.89014L19.1335 4.34905Z" fill="#3C6BAD"/>
<path fill-rule="evenodd" clip-rule="evenodd" d="M23.0707 13.5295L24.6154 12.1396L26 13.6902L24.4553 15.08L23.0707 13.5295Z" fill="#3C6BAD"/>
<path fill-rule="evenodd" clip-rule="evenodd" d="M16.1666 10.088L18.4743 7.99854L20.5559 10.3244L18.2482 12.4138L16.1666 10.088Z" fill="#3C6BAD"/>
</svg>
