<svg width="36" height="26" viewBox="0 0 36 26" fill="none" xmlns="http://www.w3.org/2000/svg">
<path d="M34.004 26H1.997C0.894002 26 0 25.109 0 24.008V1.991C0 0.891 0.894002 0 1.997 0H34.004C35.106 0 36 0.891 36 1.991V24.008C36 25.109 35.106 26 34.004 26Z" fill="#F0C41B"/>
<path d="M36 3.09497H0V8.04797H36V3.09497Z" fill="#806F5E"/>
<path d="M9.31001 12.381H3.724C3.382 12.381 3.104 12.103 3.104 11.761C3.104 11.42 3.382 11.142 3.724 11.142H9.31001C9.65301 11.142 9.931 11.419 9.931 11.761C9.931 12.104 9.65301 12.381 9.31001 12.381Z" fill="#F9EAB0"/>
<path d="M17.38 12.381H11.793C11.45 12.381 11.172 12.103 11.172 11.761C11.172 11.42 11.45 11.142 11.793 11.142H17.38C17.722 11.142 18 11.419 18 11.761C18 12.104 17.722 12.381 17.38 12.381Z" fill="#F9EAB0"/>
<path d="M4.34501 15.477H3.724C3.382 15.477 3.104 15.199 3.104 14.857C3.104 14.516 3.382 14.238 3.724 14.238H4.34501C4.688 14.238 4.966 14.516 4.966 14.857C4.965 15.198 4.688 15.477 4.34501 15.477Z" fill="#F9EAB0"/>
<path d="M8.06903 15.477H6.82803C6.48503 15.477 6.20703 15.199 6.20703 14.857C6.20703 14.516 6.48503 14.238 6.82803 14.238H8.06903C8.41203 14.238 8.69003 14.516 8.69003 14.857C8.68903 15.198 8.41203 15.477 8.06903 15.477Z" fill="#F9EAB0"/>
<path d="M11.172 15.477H10.551C10.208 15.477 9.93103 15.199 9.93103 14.857C9.93103 14.516 10.208 14.238 10.551 14.238H11.172C11.514 14.238 11.793 14.516 11.793 14.857C11.793 15.198 11.515 15.477 11.172 15.477Z" fill="#F9EAB0"/>
<path d="M14.8961 15.477H13.6541C13.3111 15.477 13.0341 15.199 13.0341 14.857C13.0341 14.516 13.3111 14.238 13.6541 14.238H14.8961C15.2391 14.238 15.5171 14.516 15.5171 14.857C15.5171 15.198 15.2391 15.477 14.8961 15.477Z" fill="#F9EAB0"/>
<path d="M17.38 15.477C17.218 15.477 17.057 15.409 16.939 15.297C16.828 15.179 16.759 15.025 16.759 14.857C16.759 14.697 16.827 14.537 16.939 14.418C17.168 14.189 17.585 14.189 17.821 14.418C17.932 14.537 18.001 14.697 18.001 14.857C18.001 15.018 17.933 15.179 17.821 15.297C17.701 15.408 17.541 15.477 17.38 15.477Z" fill="#F9EAB0"/>
<path d="M28.553 19.19C28.553 21.241 26.884 22.905 24.827 22.905C22.77 22.905 21.103 21.241 21.103 19.19C21.103 17.139 22.77 15.476 24.827 15.476C26.884 15.476 28.553 17.14 28.553 19.19Z" fill="#DB2215"/>
<path d="M32.896 19.19C32.896 21.241 31.229 22.905 29.172 22.905C27.115 22.905 25.446 21.241 25.446 19.19C25.446 17.139 27.115 15.476 29.172 15.476C31.229 15.476 32.896 17.14 32.896 19.19Z" fill="#245EA9"/>
</svg>
