<svg width="18" height="26" viewBox="0 0 18 26" fill="none" xmlns="http://www.w3.org/2000/svg">
<path d="M14.8346 12.0432C18.6763 9.2768 16.8017 3.9182 11.0314 3.8896V0L8.74029 0V3.887L7.06886 3.887V0L4.77772 0V3.887H0L0 6.4636H2.15229C2.682 6.4636 3.00857 6.9186 3.00857 7.215L3.00857 18.6394C3.00857 18.9358 2.682 19.3908 2.15229 19.3908H0L0 21.9674H4.77515V26H7.06629V21.9648H8.73771V26H11.0289V21.9648C17.6349 21.9648 18 18.5094 18 16.5204C18 12.6646 14.8346 12.0432 14.8346 12.0432ZM7.07143 6.5494H9.02829C9.92829 6.5494 12.3429 6.76 12.3429 8.827C12.3429 11.1488 10.5403 11.453 9.936 11.453H7.07143V6.5494ZM9.936 19.1776H7.07143L7.07143 13.8788H9.50657C11.4557 13.8788 13.518 14.183 13.518 16.3046C13.5154 18.629 11.5123 19.1776 9.936 19.1776Z" fill="#F2911B"/>
</svg>
