<svg width="20" height="26" viewBox="0 0 20 26" fill="none" xmlns="http://www.w3.org/2000/svg">
<path d="M14.4753 9.8605V0C14.4753 0 2.634 7.4269 1.78067 7.96835C0.926666 8.5098 0 9.802 0 11.6558C0 11.6558 0.0333335 23.3123 0.0333335 24.206C0.0333335 25.0998 0.906 26 1.82 26H20V9.8605H14.4753Z" fill="#FFCC00"/>
<path d="M11.4366 9.96517C11.416 10.9311 10.5686 12.1063 9.58329 12.5366C8.59729 12.9675 7.77662 12.5041 7.78996 11.5382C7.80996 10.4943 8.65729 9.39772 9.64329 8.96677C10.636 8.54297 11.456 8.99927 11.4366 9.96517Z" fill="#333333"/>
<path d="M14.4754 9.86047H17.2674V19.7223L2.40271 24.3301L14.4754 16.133V9.86047Z" fill="#F0B200"/>
</svg>
