<svg width="22" height="26" viewBox="0 0 22 26" fill="none" xmlns="http://www.w3.org/2000/svg">
<path d="M19.8942 6.71734C19.9388 6.35958 19.9621 5.99534 19.9621 5.62568C19.9621 2.51875 17.4103 0 14.2625 0H4.73725C4.1381 0 3.62654 0.427074 3.52715 1.01024L0.0173189 21.6008C-0.108632 22.3396 0.468416 23.0129 1.22742 23.0129H4.71105C5.3102 23.0129 5.83139 22.5862 5.93073 22.003C5.93073 22.003 5.93654 21.9688 5.94705 21.9072H5.9471L5.46161 24.7553C5.35068 25.4065 5.85927 26 6.52825 26H9.5759C10.104 26 10.5549 25.6236 10.6425 25.1095L11.5083 20.0304C11.6575 19.1549 12.4255 18.5137 13.325 18.5137H14.1256C18.4745 18.5137 22 15.0339 22 10.7415C22 9.08045 21.1682 7.6122 19.8942 6.71734Z" fill="#002987"/>
<path d="M19.8942 6.71729C19.3492 11.0935 15.5703 14.4822 10.9892 14.4822H8.33117C7.73122 14.4822 7.21309 14.8767 7.05056 15.4343L5.46173 24.7552C5.35075 25.4064 5.85934 25.9999 6.52831 25.9999H9.57597C10.1041 25.9999 10.555 25.6235 10.6425 25.1095L11.5084 20.0304C11.6576 19.1548 12.4256 18.5137 13.325 18.5137H14.1257C18.4746 18.5137 22 15.0339 22 10.7414C22 9.0804 21.1682 7.61214 19.8942 6.71729Z" fill="#0085CC"/>
<path d="M8.33111 14.4823H10.9892C15.5703 14.4823 19.3492 11.0936 19.8942 6.71738C19.0768 6.14324 18.0778 5.80444 16.9982 5.80444H10.0604C9.27048 5.80444 8.59604 6.36746 8.46494 7.13629L7.05048 15.4343C7.21299 14.8767 7.73116 14.4823 8.33111 14.4823Z" fill="#00186A"/>
</svg>
