<svg width="20" height="20" viewBox="0 0 20 20" fill="none" xmlns="http://www.w3.org/2000/svg">
<path d="M18.6896 16.5059L17.508 12.3438V3.28125C17.508 2.93555 17.2287 2.65625 16.883 2.65625H3.13296C2.78725 2.65625 2.50796 2.93555 2.50796 3.28125V12.3438L1.32632 16.5059C1.17983 16.9141 1.48061 17.3438 1.91421 17.3438H18.1017C18.5353 17.3438 18.8361 16.9141 18.6896 16.5059ZM3.91421 4.0625H16.1017V11.7773H3.91421V4.0625ZM8.37319 15.9375L8.53139 15.2148H11.4669L11.6251 15.9375H8.37319ZM12.7482 15.9375L12.3751 14.2441C12.3595 14.1719 12.2951 14.1211 12.2228 14.1211H7.77749C7.70327 14.1211 7.64077 14.1719 7.62514 14.2441L7.2521 15.9375H2.94936L3.77553 13.0273H16.2404L17.0665 15.9375H12.7482Z" fill="#69C0FF"/>
</svg>
