<svg width="20" height="20" viewBox="0 0 20 20" fill="none" xmlns="http://www.w3.org/2000/svg">
<path d="M14.5312 1.21094H5.46875C4.7793 1.21094 4.21875 1.77148 4.21875 2.46094V17.4609C4.21875 18.1504 4.7793 18.7109 5.46875 18.7109H14.5312C15.2207 18.7109 15.7812 18.1504 15.7812 17.4609V2.46094C15.7812 1.77148 15.2207 1.21094 14.5312 1.21094ZM14.375 17.3047H5.625V2.61719H14.375V17.3047ZM9.21875 15.3125C9.21875 15.5197 9.30106 15.7184 9.44757 15.8649C9.59409 16.0114 9.7928 16.0938 10 16.0938C10.2072 16.0938 10.4059 16.0114 10.5524 15.8649C10.6989 15.7184 10.7812 15.5197 10.7812 15.3125C10.7812 15.1053 10.6989 14.9066 10.5524 14.7601C10.4059 14.6136 10.2072 14.5312 10 14.5312C9.7928 14.5312 9.59409 14.6136 9.44757 14.7601C9.30106 14.9066 9.21875 15.1053 9.21875 15.3125Z" fill="#69C0FF"/>
</svg>
